<mxfile host="app.diagrams.net" modified="2024-02-22T17:13:31.395Z" agent="Mozilla/5.0 (Windows NT 10.0; Win64; x64; rv:122.0) Gecko/20100101 Firefox/122.0" etag="zh2qL9TWrDzsFLgmpsVH" version="23.1.5" type="github">
  <diagram name="Page-1" id="58cdce13-f638-feb5-8d6f-7d28b1aa9fa0">
    <mxGraphModel dx="2009" dy="539" grid="1" gridSize="10" guides="1" tooltips="1" connect="1" arrows="1" fold="1" page="1" pageScale="1" pageWidth="1100" pageHeight="850" background="none" math="0" shadow="0">
      <root>
        <mxCell id="0" />
        <mxCell id="1" parent="0" />
        <mxCell id="b1CxEmygP4htBaiHvAMU-6" style="rounded=0;orthogonalLoop=1;jettySize=auto;html=1;" edge="1" parent="1" source="b1CxEmygP4htBaiHvAMU-1" target="b1CxEmygP4htBaiHvAMU-2">
          <mxGeometry relative="1" as="geometry" />
        </mxCell>
        <mxCell id="b1CxEmygP4htBaiHvAMU-7" style="rounded=0;orthogonalLoop=1;jettySize=auto;html=1;exitX=0;exitY=1;exitDx=0;exitDy=0;exitPerimeter=0;" edge="1" parent="1" source="b1CxEmygP4htBaiHvAMU-1" target="b1CxEmygP4htBaiHvAMU-3">
          <mxGeometry relative="1" as="geometry" />
        </mxCell>
        <mxCell id="b1CxEmygP4htBaiHvAMU-8" style="rounded=0;orthogonalLoop=1;jettySize=auto;html=1;exitX=0.25;exitY=0.1;exitDx=0;exitDy=0;exitPerimeter=0;" edge="1" parent="1" source="b1CxEmygP4htBaiHvAMU-1" target="b1CxEmygP4htBaiHvAMU-4">
          <mxGeometry relative="1" as="geometry" />
        </mxCell>
        <mxCell id="b1CxEmygP4htBaiHvAMU-11" style="rounded=0;orthogonalLoop=1;jettySize=auto;html=1;" edge="1" parent="1" source="b1CxEmygP4htBaiHvAMU-1" target="b1CxEmygP4htBaiHvAMU-10">
          <mxGeometry relative="1" as="geometry" />
        </mxCell>
        <mxCell id="b1CxEmygP4htBaiHvAMU-12" style="rounded=0;orthogonalLoop=1;jettySize=auto;html=1;" edge="1" parent="1" source="b1CxEmygP4htBaiHvAMU-1" target="b1CxEmygP4htBaiHvAMU-9">
          <mxGeometry relative="1" as="geometry" />
        </mxCell>
        <mxCell id="b1CxEmygP4htBaiHvAMU-34" style="rounded=0;orthogonalLoop=1;jettySize=auto;html=1;" edge="1" parent="1" source="b1CxEmygP4htBaiHvAMU-1" target="b1CxEmygP4htBaiHvAMU-30">
          <mxGeometry relative="1" as="geometry" />
        </mxCell>
        <mxCell id="b1CxEmygP4htBaiHvAMU-35" style="rounded=0;orthogonalLoop=1;jettySize=auto;html=1;" edge="1" parent="1" source="b1CxEmygP4htBaiHvAMU-1" target="b1CxEmygP4htBaiHvAMU-32">
          <mxGeometry relative="1" as="geometry" />
        </mxCell>
        <mxCell id="b1CxEmygP4htBaiHvAMU-1" value="User" style="shape=umlActor;verticalLabelPosition=bottom;verticalAlign=top;html=1;outlineConnect=0;" vertex="1" parent="1">
          <mxGeometry x="270" y="80" width="30" height="60" as="geometry" />
        </mxCell>
        <mxCell id="b1CxEmygP4htBaiHvAMU-2" value="Встать в очередь на стирку" style="ellipse;whiteSpace=wrap;html=1;" vertex="1" parent="1">
          <mxGeometry x="-10" y="100" width="110" height="50" as="geometry" />
        </mxCell>
        <mxCell id="b1CxEmygP4htBaiHvAMU-3" value="Посмотреть место в очереди на стирку" style="ellipse;whiteSpace=wrap;html=1;" vertex="1" parent="1">
          <mxGeometry x="-40" y="190" width="130" height="50" as="geometry" />
        </mxCell>
        <mxCell id="b1CxEmygP4htBaiHvAMU-4" value="Выйти из очереди на стирку" style="ellipse;whiteSpace=wrap;html=1;" vertex="1" parent="1">
          <mxGeometry x="20" y="10" width="110" height="50" as="geometry" />
        </mxCell>
        <mxCell id="b1CxEmygP4htBaiHvAMU-19" value="" style="rounded=0;orthogonalLoop=1;jettySize=auto;html=1;dashed=1;" edge="1" parent="1" source="b1CxEmygP4htBaiHvAMU-14" target="b1CxEmygP4htBaiHvAMU-15">
          <mxGeometry relative="1" as="geometry" />
        </mxCell>
        <mxCell id="b1CxEmygP4htBaiHvAMU-9" value="Авторизоваться" style="ellipse;whiteSpace=wrap;html=1;" vertex="1" parent="1">
          <mxGeometry x="150" y="260" width="110" height="50" as="geometry" />
        </mxCell>
        <mxCell id="b1CxEmygP4htBaiHvAMU-10" value="Зарегистрироваться" style="ellipse;whiteSpace=wrap;html=1;" vertex="1" parent="1">
          <mxGeometry x="310" y="260" width="110" height="50" as="geometry" />
        </mxCell>
        <mxCell id="b1CxEmygP4htBaiHvAMU-40" style="rounded=0;orthogonalLoop=1;jettySize=auto;html=1;" edge="1" parent="1" source="b1CxEmygP4htBaiHvAMU-13" target="b1CxEmygP4htBaiHvAMU-39">
          <mxGeometry relative="1" as="geometry" />
        </mxCell>
        <mxCell id="b1CxEmygP4htBaiHvAMU-44" style="rounded=0;orthogonalLoop=1;jettySize=auto;html=1;" edge="1" parent="1" source="b1CxEmygP4htBaiHvAMU-13" target="b1CxEmygP4htBaiHvAMU-41">
          <mxGeometry relative="1" as="geometry">
            <mxPoint x="620" y="250" as="targetPoint" />
          </mxGeometry>
        </mxCell>
        <mxCell id="b1CxEmygP4htBaiHvAMU-45" style="rounded=0;orthogonalLoop=1;jettySize=auto;html=1;" edge="1" parent="1" source="b1CxEmygP4htBaiHvAMU-13" target="b1CxEmygP4htBaiHvAMU-43">
          <mxGeometry relative="1" as="geometry" />
        </mxCell>
        <mxCell id="b1CxEmygP4htBaiHvAMU-13" value="Admin" style="shape=umlActor;verticalLabelPosition=bottom;verticalAlign=top;html=1;outlineConnect=0;" vertex="1" parent="1">
          <mxGeometry x="770" y="80" width="30" height="60" as="geometry" />
        </mxCell>
        <mxCell id="b1CxEmygP4htBaiHvAMU-16" style="rounded=0;orthogonalLoop=1;jettySize=auto;html=1;" edge="1" parent="1" source="b1CxEmygP4htBaiHvAMU-13" target="b1CxEmygP4htBaiHvAMU-14">
          <mxGeometry relative="1" as="geometry">
            <mxPoint x="720" y="140" as="targetPoint" />
          </mxGeometry>
        </mxCell>
        <mxCell id="b1CxEmygP4htBaiHvAMU-14" value="Авторизоваться" style="ellipse;whiteSpace=wrap;html=1;" vertex="1" parent="1">
          <mxGeometry x="650" y="260" width="110" height="50" as="geometry" />
        </mxCell>
        <mxCell id="b1CxEmygP4htBaiHvAMU-17" style="rounded=0;orthogonalLoop=1;jettySize=auto;html=1;" edge="1" parent="1" source="b1CxEmygP4htBaiHvAMU-13" target="b1CxEmygP4htBaiHvAMU-15">
          <mxGeometry relative="1" as="geometry">
            <mxPoint x="780" y="120" as="sourcePoint" />
          </mxGeometry>
        </mxCell>
        <mxCell id="b1CxEmygP4htBaiHvAMU-15" value="Зарегистрироваться" style="ellipse;whiteSpace=wrap;html=1;" vertex="1" parent="1">
          <mxGeometry x="810" y="260" width="110" height="50" as="geometry" />
        </mxCell>
        <mxCell id="b1CxEmygP4htBaiHvAMU-20" value="" style="rounded=0;orthogonalLoop=1;jettySize=auto;html=1;dashed=1;" edge="1" parent="1" source="b1CxEmygP4htBaiHvAMU-3" target="b1CxEmygP4htBaiHvAMU-9">
          <mxGeometry relative="1" as="geometry">
            <mxPoint x="270" y="295" as="sourcePoint" />
            <mxPoint x="320" y="295" as="targetPoint" />
          </mxGeometry>
        </mxCell>
        <mxCell id="b1CxEmygP4htBaiHvAMU-21" value="" style="rounded=0;orthogonalLoop=1;jettySize=auto;html=1;dashed=1;" edge="1" parent="1" source="b1CxEmygP4htBaiHvAMU-2" target="b1CxEmygP4htBaiHvAMU-9">
          <mxGeometry relative="1" as="geometry">
            <mxPoint x="72" y="229" as="sourcePoint" />
            <mxPoint x="104.88158604653017" y="270.42670897014443" as="targetPoint" />
          </mxGeometry>
        </mxCell>
        <mxCell id="b1CxEmygP4htBaiHvAMU-22" value="" style="rounded=0;orthogonalLoop=1;jettySize=auto;html=1;dashed=1;" edge="1" parent="1" source="b1CxEmygP4htBaiHvAMU-4" target="b1CxEmygP4htBaiHvAMU-9">
          <mxGeometry relative="1" as="geometry">
            <mxPoint x="65" y="160" as="sourcePoint" />
            <mxPoint x="107.77158117044507" y="270.2168497272405" as="targetPoint" />
          </mxGeometry>
        </mxCell>
        <mxCell id="b1CxEmygP4htBaiHvAMU-23" value="" style="rounded=0;orthogonalLoop=1;jettySize=auto;html=1;dashed=1;" edge="1" parent="1" source="b1CxEmygP4htBaiHvAMU-9" target="b1CxEmygP4htBaiHvAMU-10">
          <mxGeometry relative="1" as="geometry">
            <mxPoint x="270" y="295" as="sourcePoint" />
            <mxPoint x="320" y="295" as="targetPoint" />
          </mxGeometry>
        </mxCell>
        <mxCell id="b1CxEmygP4htBaiHvAMU-30" value="Подать заявку на ремонт" style="ellipse;whiteSpace=wrap;html=1;" vertex="1" parent="1">
          <mxGeometry x="430" y="100" width="110" height="50" as="geometry" />
        </mxCell>
        <mxCell id="b1CxEmygP4htBaiHvAMU-32" value="Отозвать заявку на ремонт" style="ellipse;whiteSpace=wrap;html=1;" vertex="1" parent="1">
          <mxGeometry x="400" y="10" width="110" height="50" as="geometry" />
        </mxCell>
        <mxCell id="b1CxEmygP4htBaiHvAMU-37" value="" style="rounded=0;orthogonalLoop=1;jettySize=auto;html=1;dashed=1;" edge="1" parent="1" source="b1CxEmygP4htBaiHvAMU-32" target="b1CxEmygP4htBaiHvAMU-9">
          <mxGeometry relative="1" as="geometry">
            <mxPoint x="98" y="69" as="sourcePoint" />
            <mxPoint x="202" y="271" as="targetPoint" />
          </mxGeometry>
        </mxCell>
        <mxCell id="b1CxEmygP4htBaiHvAMU-38" value="" style="rounded=0;orthogonalLoop=1;jettySize=auto;html=1;dashed=1;" edge="1" parent="1" source="b1CxEmygP4htBaiHvAMU-30" target="b1CxEmygP4htBaiHvAMU-9">
          <mxGeometry relative="1" as="geometry">
            <mxPoint x="442" y="68" as="sourcePoint" />
            <mxPoint x="238" y="272" as="targetPoint" />
          </mxGeometry>
        </mxCell>
        <mxCell id="b1CxEmygP4htBaiHvAMU-39" value="Завершить ремонт в комнате" style="ellipse;whiteSpace=wrap;html=1;" vertex="1" parent="1">
          <mxGeometry x="560" y="40" width="110" height="50" as="geometry" />
        </mxCell>
        <mxCell id="b1CxEmygP4htBaiHvAMU-41" value="Очистить журнал" style="ellipse;whiteSpace=wrap;html=1;" vertex="1" parent="1">
          <mxGeometry x="520" y="180" width="110" height="50" as="geometry" />
        </mxCell>
        <mxCell id="b1CxEmygP4htBaiHvAMU-43" value="Посмотреть очередь на стирку" style="ellipse;whiteSpace=wrap;html=1;" vertex="1" parent="1">
          <mxGeometry x="900" y="30" width="110" height="50" as="geometry" />
        </mxCell>
      </root>
    </mxGraphModel>
  </diagram>
</mxfile>
